#!OML:ASF Y:\EmotionMaleHayes\Project 1\Capture day 1\Session 1\Male1.ASF
:FULLY-SPECIFIED
:DEGREES
334
root -28.4034 16.7744 -0.177259 25.1065 62.8587 26.8558
lowerback 10.4309 -0.607759 -15.4859
upperback 1.01671 -2.57752 -1.45379
thorax -4.17517 -0.982876 7.49029
lowerneck -19.352 6.40379 11.0425
upperneck 21.0697 5.60461 0.15967
head 10.2944 3.52853 -0.910145
rclavicle -1.9133e-015 -1.51076e-014
rhumerus -51.4446 -5.3012 -79.8089
rradius 35.0616
rwrist -2.4662
rhand -9.09239 -33.1262
rfingers 7.12502
rthumb 16.8575 -62.4145
lclavicle -1.9133e-015 -1.51076e-014
lhumerus -29.7603 -24.1011 95.5332
lradius 34.3841
lwrist -3.14733
lhand -13.2789 -22.9787
lfingers 7.12502
lthumb 12.8243 6.60735
rfemur -17.9501 -13.9417 -7.15591
rtibia 11.9293
rfoot -11.7547 -16.4162
rtoes 26.2397
lfemur 13.6573 14.8172 -29.0601
ltibia 2.87917
lfoot -21.0341 21.0525
ltoes -6.72702
335
root -28.3273 16.77 -0.133274 25.1517 62.1107 27.059
lowerback 10.0563 -0.519081 -15.6631
upperback 1.07104 -2.40773 -1.60834
thorax -3.94589 -0.916714 7.3852
lowerneck -19.2946 6.54018 11.3058
upperneck 20.9217 5.77894 -0.0776136
head 10.257 3.59568 -1.0118
rclavicle 2.43014e-014 -2.76311e-014
rhumerus -51.9584 -4.72125 -80.1242
rradius 35.4907
rwrist -3.39711
rhand -9.27695 -33.2142
rfingers 7.12502
rthumb 16.6798 -62.5175
lclavicle 2.43014e-014 -2.76311e-014
lhumerus -29.7948 -24.4706 95.7643
lradius 34.5307
lwrist -2.39915
lhand -13.682 -23.2378
lfingers 7.12502
lthumb 12.4357 6.37224
rfemur -17.7004 -13.7912 -7.84457
rtibia 10.8318
rfoot -11.6365 -16.0942
rtoes 25.144
lfemur 14.2948 14.3402 -29.7778
ltibia 2.1997
lfoot -21.6255 21.8033
ltoes -5.36992
336
root -28.3317 16.7526 -0.0743645 26.8849 62.4678 28.5818
lowerback 10.3814 -0.6953 -16.4309
upperback 0.802925 -2.81741 -1.59167
thorax -4.28645 -1.06165 7.89336
lowerneck -19.1152 6.57056 11.3382
upperneck 20.6797 5.86107 -0.179887
head 10.1451 3.61671 -1.04851
rclavicle 8.64713e-015 3.85642e-014
rhumerus -52.3378 -4.47967 -80.1984
rradius 35.5356
rwrist -3.85877
rhand -9.51452 -33.5738
rfingers 7.12502
rthumb 16.4511 -62.8962
lclavicle 8.64713e-015 3.85642e-014
lhumerus -29.8171 -24.7817 95.9964
lradius 34.6442
lwrist -2.37635
lhand -13.7376 -23.4733
lfingers 7.12502
lthumb 12.3821 6.13997
rfemur -17.3536 -13.353 -8.79516
rtibia 9.43449
rfoot -12.3318 -16.9917
rtoes 26.4437
lfemur 13.7888 14.2232 -30.0946
ltibia 2.69424
lfoot -21.4686 21.2358
ltoes -5.11312
337
root -28.2688 16.747 -0.0212439 26.209 61.9464 27.9424
lowerback 10.0509 -0.606296 -16.4522
upperback 0.865913 -2.62819 -1.49989
thorax -4.07402 -0.990314 7.96882
lowerneck -19.1635 6.6777 11.3048
upperneck 20.6506 6.01071 -0.176959
head 10.1508 3.68107 -1.0182
rclavicle 3.80673e-014 -5.96354e-015
rhumerus -52.2083 -4.98562 -79.6464
rradius 34.9798
rwrist -2.94827
rhand -9.45427 -33.6995
rfingers 7.12502
rthumb 16.5091 -63.0171
lclavicle 3.80673e-014 -5.96354e-015
lhumerus -29.6109 -24.4344 95.9766
lradius 34.895
lwrist -3.72727
lhand -13.2863 -23.4175
lfingers 7.12502
lthumb 12.8172 6.16901
rfemur -16.9824 -12.1907 -8.97035
rtibia 8.00454
rfoot -12.7731 -17.4897
rtoes 26.9471
lfemur 14.238 14.0495 -30.0792
ltibia 2.36382
lfoot -21.6815 22.0024
ltoes -5.38564
338
root -28.206 16.7416 0.0339797 25.9181 61.4594 27.6474
lowerback 9.62845 -0.636756 -16.4492
upperback 0.962803 -2.57423 -1.52736
thorax -3.74505 -0.996539 7.91191
lowerneck -19.2967 6.86684 11.3283
upperneck 20.6393 6.23138 -0.118898
head 10.1838 3.78874 -0.963087
rclavicle 2.74323e-014 -1.82882e-014
rhumerus -51.5216 -7.18069 -78.0103
rradius 33.6185
rwrist -0.18391
rhand -8.9073 -32.7701
rfingers 7.12502
rthumb 17.0357 -62.0432
lclavicle 2.74323e-014 -1.82882e-014
lhumerus -29.4279 -24.4294 95.9391
lradius 35.061
lwrist -3.33392
lhand -13.2557 -23.5285
lfingers 7.12502
lthumb 12.8467 6.05613
rfemur -16.6868 -11.0804 -9.29969
rtibia 6.74152
rfoot -13.1099 -18.0768
rtoes 25.982
lfemur 14.5342 14.4276 -29.9676
ltibia 2.32691
lfoot -21.5814 22.3469
ltoes -6.9134
339
root -28.1649 16.7352 0.0940587 26.0964 61.3702 27.8465
lowerback 9.62005 -0.686676 -16.6714
upperback 0.958942 -2.66019 -1.4693
thorax -3.70958 -1.03796 8.10686
lowerneck -19.3165 6.9419 11.3691
upperneck 20.5111 6.3468 -0.238229
head 10.1529 3.82578 -0.995005
rclavicle 5.20319e-014 1.78906e-014
rhumerus -51.7421 -7.06804 -77.7539
rradius 34.0801
rwrist -1.79358
rhand -8.09936 -32.4611
rfingers 7.12502
rthumb 17.8132 -61.6652
lclavicle 5.20319e-014 1.78906e-014
lhumerus -29.1441 -24.486 96.0254
lradius 35.0112
lwrist -3.09428
lhand -13.5386 -23.9906
lfingers 7.12502
lthumb 12.574 5.611
rfemur -16.2466 -10.3679 -9.70439
rtibia 5.61704
rfoot -13.5761 -18.5317
rtoes 25.1826
lfemur 14.6954 14.6257 -29.8209
ltibia 2.5053
lfoot -21.331 22.4202
ltoes -8.30725
340
root -28.1283 16.725 0.153782 25.9185 61.4414 27.6913
lowerback 9.79446 -0.724019 -16.6204
upperback 0.895681 -2.74517 -1.38397
thorax -3.85316 -1.06572 8.18972
lowerneck -19.1683 6.97188 11.5899
upperneck 20.3305 6.41404 -0.540121
head 10.0833 3.83328 -1.1323
rclavicle -2.57923e-014 -2.06736e-014
rhumerus -51.9571 -7.32241 -77.4535
rradius 34.1393
rwrist -2.18336
rhand -7.89864 -32.5201
rfingers 7.12502
rthumb 18.0064 -61.7066
lclavicle -2.57923e-014 -2.06736e-014
lhumerus -29.1073 -24.8149 96.246
lradius 35.0809
lwrist -2.8295
lhand -14.0549 -24.3135
lfingers 7.12502
lthumb 12.0762 5.318
rfemur -15.7235 -9.72647 -9.83666
rtibia 4.51198
rfoot -14.3241 -18.8677
rtoes 25.9379
lfemur 14.8926 14.553 -29.4927
ltibia 2.69644
lfoot -21.0572 22.7071
ltoes -9.65356
341
root -28.0963 16.714 0.216522 26.2189 61.5074 28.0726
lowerback 10.044 -0.777909 -16.8296
upperback 0.823855 -2.89554 -1.33245
thorax -4.02043 -1.1176 8.39085
lowerneck -19.1336 7.04021 11.6086
upperneck 20.2532 6.53429 -0.655232
head 10.0608 3.87381 -1.15932
rclavicle 3.50358e-014 -8.34896e-015
rhumerus -52.0955 -7.62842 -77.0871
rradius 34.0126
rwrist -1.81336
rhand -7.64506 -32.4168
rfingers 7.12502
rthumb 18.2503 -61.5806
lclavicle 3.50358e-014 -8.34896e-015
lhumerus -29.1141 -25.0452 96.4623
lradius 35.2151
lwrist -2.65335
lhand -13.8306 -24.1797
lfingers 7.12502
lthumb 12.2925 5.43895
rfemur -15.1931 -9.14302 -10.211
rtibia 3.55453
rfoot -15.1924 -19.1683
rtoes 26.905
lfemur 15.0105 14.9889 -29.1847
ltibia 3.14169
lfoot -20.713 22.4123
ltoes -11.0832
342
root -27.9953 16.7082 0.273189 25.547 60.6553 27.5277
lowerback 9.37327 -0.621646 -16.6554
upperback 0.966628 -2.52302 -1.40917
thorax -3.59599 -0.981855 8.13964
lowerneck -19.1972 7.11898 11.5883
upperneck 20.2394 6.64167 -0.665512
head 10.0736 3.91891 -1.14142
rclavicle -7.9812e-014 -5.56597e-015
rhumerus -52.2769 -7.77887 -76.8094
rradius 34.0407
rwrist -1.59863
rhand -7.31325 -31.9175
rfingers 7.12502
rthumb 18.5695 -61.0511
lclavicle -7.9812e-014 -5.56597e-015
lhumerus -28.9609 -25.0915 96.583
lradius 35.2343
lwrist -2.75893
lhand -13.2791 -23.9526
lfingers 7.12502
lthumb 12.8242 5.6335
rfemur -15.1709 -9.35519 -10.3428
rtibia 3.27008
rfoot -14.9171 -18.125
rtoes 25.2278
lfemur 15.7761 14.7911 -29.5106
ltibia 2.51123
lfoot -21.373 23.1993
ltoes -9.02672
343
root -27.9837 16.6897 0.347229 26.6571 61.0665 28.3457
lowerback 9.50001 -0.847623 -17.092
upperback 0.761142 -2.91357 -1.32902
thorax -3.76504 -1.14112 8.51823
lowerneck -19.0578 7.2426 11.8058
upperneck 20.1082 6.8078 -0.836042
head 10.0271 3.98877 -1.21489
rclavicle -3.84648e-014 2.62396e-014
rhumerus -52.5034 -7.73254 -76.6808
rradius 34.1443
rwrist -1.55389
rhand -7.16388 -31.7796
rfingers 7.12502
rthumb 18.7132 -60.8994
lclavicle -3.84648e-014 2.62396e-014
lhumerus -28.8344 -25.0373 96.6407
lradius 35.2381
lwrist -2.81992
lhand -12.8165 -23.8685
lfingers 7.12502
lthumb 13.2701 5.68909
rfemur -14.9589 -8.88744 -10.7423
rtibia 2.59056
rfoot -15.347 -19.0811
rtoes 24.0932
lfemur 15.3545 14.5531 -29.4739
ltibia 3.03024
lfoot -21.667 22.7404
ltoes -7.5483
344
root -27.9207 16.6879 0.418945 26.3691 60.8725 28.1723
lowerback 9.44019 -0.823406 -17.1284
upperback 0.783024 -2.86966 -1.27605
thorax -3.7146 -1.1249 8.58898
lowerneck -18.9608 7.36811 12.126
upperneck 19.9961 6.97427 -1.15246
head 10.0056 4.04976 -1.35397
rclavicle -1.4561e-014 -4.77083e-015
rhumerus -52.6867 -7.69086 -76.4811
rradius 34.1778
rwrist -1.42563
rhand -6.91518 -32.2005
rfingers 7.12502
rthumb 18.9524 -61.2971
lclavicle -1.4561e-014 -4.77083e-015
lhumerus -28.735 -24.7313 96.7328
lradius 35.1205
lwrist -2.86019
lhand -12.5156 -24.0662
lfingers 7.12502
lthumb 13.5601 5.47225
rfemur -14.5919 -8.86916 -10.745
rtibia 2.18789
rfoot -15.1012 -18.8733
rtoes 23.5407
lfemur 15.8656 14.0511 -29.5421
ltibia 2.81688
lfoot -22.0533 23.3793
ltoes -7.26352
345
root -27.8661 16.6814 0.487115 26.049 60.8238 27.9167
lowerback 9.4564 -0.834463 -16.9602
upperback 0.806134 -2.86731 -1.23778
thorax -3.705 -1.12917 8.53775
lowerneck -19.0613 7.46369 12.2365
upperneck 19.9417 7.08939 -1.29052
head 10.0221 4.09175 -1.39919
rclavicle -2.49475e-014 1.66979e-014
rhumerus -52.7276 -7.89485 -76.2892
rradius 34.0881
rwrist -1.2783
rhand -6.84242 -32.4449
rfingers 7.12502
rthumb 19.0224 -61.5347
lclavicle -2.49475e-014 1.66979e-014
lhumerus -28.7187 -24.7018 96.8893
lradius 35.1777
lwrist -3.02133
lhand -12.5698 -23.5606
lfingers 7.12502
lthumb 13.5078 5.98134
rfemur -14.3065 -9.04627 -10.605
rtibia 2.07058
rfoot -14.8221 -18.5415
rtoes 23.63
lfemur 16.1936 14.2101 -29.1558
ltibia 2.98081
lfoot -21.9807 23.4448
ltoes -8.56037
346
root -27.8182 16.6701 0.554471 25.9741 60.7273 27.7786
lowerback 9.38357 -0.880723 -16.8423
upperback 0.801612 -2.90258 -1.22424
thorax -3.66436 -1.15218 8.48741
lowerneck -19.3092 7.56942 12.144
upperneck 20.0239 7.21974 -1.26625
head 10.1003 4.14649 -1.34734
rclavicle -6.26172e-014 -9.46215e-014
rhumerus -52.8152 -7.8641 -76.259
rradius 34.127
rwrist -1.48322
rhand -7.09619 -32.4254
rfingers 7.12502
rthumb 18.7783 -61.539
lclavicle -6.26172e-014 -9.46215e-014
lhumerus -28.57 -24.6683 96.8457
lradius 35.252
lwrist -3.05994
lhand -11.9058 -23.7066
lfingers 7.12502
lthumb 14.1478 5.79166
rfemur -14.2698 -9.01646 -10.5563
rtibia 2.16642
rfoot -14.8076 -18.2551
rtoes 24.2454
lfemur 16.3345 13.9926 -29.0432
ltibia 2.99238
lfoot -22.2313 23.6926
ltoes -8.00524
347
root -27.7696 16.66 0.62556 26.0067 60.6082 27.695
lowerback 9.30195 -0.887352 -16.8186
upperback 0.735685 -2.90038 -1.18593
thorax -3.69049 -1.14625 8.51401
lowerneck -19.5663 7.6384 12.1043
upperneck 20.2063 7.29363 -1.2821
head 10.2167 4.17738 -1.32488
rclavicle -1.65985e-014 1.82882e-014
rhumerus -53.0547 -7.77385 -76.157
rradius 34.2658
rwrist -1.60828
rhand -7.11659 -32.154
rfingers 7.12502
rthumb 18.7587 -61.2695
lclavicle -1.65985e-014 1.82882e-014
lhumerus -28.507 -24.5553 96.9012
lradius 35.2729
lwrist -3.17293
lhand -12.0574 -23.7925
lfingers 7.12502
lthumb 14.0016 5.71593
rfemur -14.4031 -9.34027 -10.4063
rtibia 2.56498
rfoot -14.5894 -17.8224
rtoes 24.7704
lfemur 16.4992 12.9877 -29.3619
ltibia 2.66311
lfoot -22.8391 24.5197
ltoes -6.17026
